<svg width="113" height="87" viewBox="0 0 113 87" fill="none" xmlns="http://www.w3.org/2000/svg">
<path d="M60.4416 63.9773C59.7774 63.9773 58.9646 63.9773 58.402 63.9773C58.402 63.9773 58.1832 63.9537 58.105 64.1898C57.9956 64.4966 54.0883 75.6146 53.9633 75.9765C53.932 76.063 53.8851 76.1103 53.8304 76.1181C53.8226 76.126 53.807 76.1181 53.7991 76.1181C53.7991 76.1181 53.7757 76.126 53.7679 76.1181C53.7132 76.1103 53.6585 76.063 53.635 75.9765C53.5022 75.6146 49.5948 64.4888 49.4933 64.1898C49.4151 63.9537 49.1885 63.9773 49.1885 63.9773C48.6336 63.9773 47.8209 63.9773 47.1567 63.9773C46.9222 63.9773 46.7112 64.1189 46.8128 64.4337C46.9535 64.8428 52.2831 79.5959 52.2831 79.5959C52.2831 79.5959 52.3925 79.9107 52.6113 79.9107C52.8692 79.9107 53.3224 79.9107 53.7601 79.9107C53.7835 79.9107 53.807 79.9107 53.8226 79.9107C54.2602 79.9107 54.7056 79.9107 54.9713 79.9107C55.198 79.9107 55.2996 79.5959 55.2996 79.5959C60.637 64.8192 60.3791 65.5746 60.7698 64.4337C60.8871 64.1189 60.6761 63.9773 60.4416 63.9773Z" fill="white"/>
<path d="M8.76315 63.576C4.26971 63.576 0.799988 67.2584 0.799988 71.9558C0.799988 71.9558 0.799988 85.686 0.799988 86.3391C0.799988 87 0.862505 87 1.44079 87C2.06597 87 2.05815 87 2.65988 87C3.26161 87 3.31632 87 3.31632 86.3391C3.31632 85.8355 3.31632 80.7683 3.31632 78.5022C3.31632 78.1717 3.63672 77.9908 3.98838 78.3527C5.21528 79.588 6.95014 80.3119 8.78659 80.3119C13.1706 80.3119 16.6794 76.724 16.6794 71.9558C16.6872 67.164 13.1237 63.576 8.76315 63.576ZM8.76315 77.9042C5.84827 77.9042 3.41791 75.2762 3.41791 71.9636C3.41791 68.6511 5.87953 66.0231 8.76315 66.0231C11.6858 66.0231 14.0849 68.6196 14.0849 71.9636C14.0771 75.2998 11.678 77.9042 8.76315 77.9042Z" fill="white"/>
<path d="M26.7838 63.576C22.2982 63.576 18.8206 67.3528 18.8206 71.9951C18.8206 76.5745 22.2982 80.3198 26.7838 80.3198C31.3007 80.3198 34.7469 76.5745 34.7469 71.9951C34.7469 67.3528 31.3007 63.576 26.7838 63.576ZM26.7838 77.7783C23.8611 77.7783 21.462 75.1739 21.462 71.9872C21.462 68.7376 23.8611 66.0781 26.7838 66.0781C29.7377 66.0781 32.129 68.7376 32.129 71.9872C32.129 75.1739 29.7377 77.7783 26.7838 77.7783Z" fill="white"/>
<path d="M87.5273 63.576C83.745 63.576 80.9161 66.2119 80.9161 70.2326C80.9161 70.2326 80.9161 78.9901 80.9161 79.3677C80.9161 79.7848 80.9708 79.9185 81.4866 79.9185C81.8382 79.9185 82.6041 79.9185 82.9167 79.9185C83.3543 79.9185 83.5106 79.9185 83.5106 79.4858C83.5106 79.053 83.5106 70.1382 83.5106 70.1382C83.5106 67.7541 85.0735 66.0231 87.5351 66.0231C89.9655 66.0231 91.5284 67.7541 91.5284 70.1382C91.5284 70.1382 91.5284 79.1238 91.5284 79.4858C91.5284 79.8398 91.6613 79.9106 92.0286 79.9106C92.2943 79.9106 93.1461 79.9106 93.5212 79.9106C94.076 79.9106 94.1073 79.7926 94.1073 79.3363C94.1073 79.053 94.1073 70.2326 94.1073 70.2326C94.0995 66.204 91.3096 63.576 87.5273 63.576Z" fill="white"/>
<path d="M70.21 63.5838C65.8181 63.5838 62.1843 66.7784 62.1843 71.9557C62.1843 76.6138 65.8181 80.2647 70.3663 80.2647C73.8126 80.2647 76.3523 78.5572 77.6574 75.5201C77.7355 75.3312 77.6183 74.9536 77.2119 74.9536C77.2119 74.9536 75.9147 74.9536 75.4849 74.9536C75.1723 74.9536 75.0316 75.2053 75.0316 75.2053C74.0001 76.897 72.3121 77.8806 70.3663 77.8806C68.7096 77.8806 66.7403 76.8577 66.1073 75.7719C65.9275 75.4571 66.0213 75.2132 66.2636 75.1109C68.1235 74.3162 77.4151 70.3034 77.4229 70.3034C77.7121 70.1854 77.9074 69.9808 77.8293 69.6503C76.8603 65.6532 73.6875 63.5838 70.21 63.5838ZM74.2189 69.0366C73.6406 69.2884 65.8728 72.6324 65.6775 72.7189C65.4821 72.7976 65.1539 72.7898 65.0445 72.4436C64.7866 71.6253 64.6928 68.1947 67.85 66.6289C70.5069 65.3149 73.2733 66.4322 74.4065 68.4701C74.5393 68.7061 74.4455 68.9422 74.2189 69.0366Z" fill="white"/>
<path d="M100.422 63.9773C99.812 63.9773 99.5541 63.9773 98.8664 63.9773C98.5304 63.9773 98.3506 64.0088 98.3506 64.3786C98.3506 64.3786 98.3506 77.5973 98.3506 79.3598V79.5487C98.3506 80.005 98.7805 79.9185 98.8899 79.9185C99.5072 79.9185 99.7651 79.9185 100.445 79.9185C100.781 79.9185 100.961 79.8792 100.961 79.5251V79.3677C100.961 77.7626 100.961 64.355 100.961 64.355C100.961 63.8829 100.531 63.9773 100.422 63.9773Z" fill="white"/>
<path d="M112.183 63.6151C108.314 63.4263 105.243 65.8655 105.243 70.4448C105.243 70.4448 105.243 79.0764 105.243 79.5328C105.243 79.9891 105.665 79.9104 105.782 79.9104C106.384 79.9104 106.642 79.9104 107.314 79.9104C107.65 79.9104 107.83 79.8632 107.83 79.5092V70.3819C107.83 67.4942 109.549 66.0071 112.3 66.0858C112.526 66.0858 112.808 65.9914 112.808 65.6137C112.808 65.1573 112.808 64.6459 112.808 64.1659C112.8 63.7489 112.534 63.6073 112.183 63.6151Z" fill="white"/>
<path d="M44.7888 63.6151C40.9206 63.4263 37.8494 65.8655 37.8494 70.4448C37.8494 70.4448 37.8494 79.0764 37.8494 79.5328C37.8494 79.9891 38.2792 79.9104 38.3808 79.9104C38.9903 79.9104 39.2404 79.9104 39.9203 79.9104C40.2563 79.9104 40.4282 79.8632 40.4282 79.5092V70.3819C40.4282 67.4942 42.1553 66.0071 44.8982 66.0858C45.1249 66.0858 45.4062 65.9914 45.4062 65.6137C45.4062 65.1573 45.4062 64.6459 45.4062 64.1659C45.4062 63.7489 45.1483 63.6073 44.7888 63.6151Z" fill="white"/>
<path d="M60.4416 63.9773C59.7774 63.9773 58.9646 63.9773 58.402 63.9773C58.402 63.9773 58.1832 63.9537 58.105 64.1898C57.9956 64.4966 54.0883 75.6146 53.9633 75.9765C53.932 76.063 53.8851 76.1103 53.8304 76.1181C53.8226 76.126 53.807 76.1181 53.7991 76.1181C53.7991 76.1181 53.7757 76.126 53.7679 76.1181C53.7132 76.1103 53.6585 76.063 53.635 75.9765C53.5022 75.6146 49.5948 64.4888 49.4933 64.1898C49.4151 63.9537 49.1885 63.9773 49.1885 63.9773C48.6336 63.9773 47.8209 63.9773 47.1567 63.9773C46.9222 63.9773 46.7112 64.1189 46.8128 64.4337C46.9535 64.8428 52.2831 79.5959 52.2831 79.5959C52.2831 79.5959 52.3925 79.9107 52.6113 79.9107C52.8692 79.9107 53.3224 79.9107 53.7601 79.9107C53.7835 79.9107 53.807 79.9107 53.8226 79.9107C54.2602 79.9107 54.7056 79.9107 54.9713 79.9107C55.198 79.9107 55.2996 79.5959 55.2996 79.5959C60.637 64.8192 60.3791 65.5746 60.7698 64.4337C60.8871 64.1189 60.6761 63.9773 60.4416 63.9773Z" fill="white"/>
<path d="M8.76315 63.576C4.26971 63.576 0.799988 67.2584 0.799988 71.9558C0.799988 71.9558 0.799988 85.686 0.799988 86.3391C0.799988 87 0.862505 87 1.44079 87C2.06597 87 2.05815 87 2.65988 87C3.26161 87 3.31632 87 3.31632 86.3391C3.31632 85.8355 3.31632 80.7683 3.31632 78.5022C3.31632 78.1717 3.63672 77.9908 3.98838 78.3527C5.21528 79.588 6.95014 80.3119 8.78659 80.3119C13.1706 80.3119 16.6794 76.724 16.6794 71.9558C16.6872 67.164 13.1237 63.576 8.76315 63.576ZM8.76315 77.9042C5.84827 77.9042 3.41791 75.2762 3.41791 71.9636C3.41791 68.6511 5.87953 66.0231 8.76315 66.0231C11.6858 66.0231 14.0849 68.6196 14.0849 71.9636C14.0771 75.2998 11.678 77.9042 8.76315 77.9042Z" fill="white"/>
<path d="M26.7838 63.576C22.2982 63.576 18.8206 67.3528 18.8206 71.9951C18.8206 76.5745 22.2982 80.3198 26.7838 80.3198C31.3007 80.3198 34.7469 76.5745 34.7469 71.9951C34.7469 67.3528 31.3007 63.576 26.7838 63.576ZM26.7838 77.7783C23.8611 77.7783 21.462 75.1739 21.462 71.9872C21.462 68.7376 23.8611 66.0781 26.7838 66.0781C29.7377 66.0781 32.129 68.7376 32.129 71.9872C32.129 75.1739 29.7377 77.7783 26.7838 77.7783Z" fill="white"/>
<path d="M87.5273 63.576C83.745 63.576 80.9161 66.2119 80.9161 70.2326C80.9161 70.2326 80.9161 78.9901 80.9161 79.3677C80.9161 79.7848 80.9708 79.9185 81.4866 79.9185C81.8382 79.9185 82.6041 79.9185 82.9167 79.9185C83.3543 79.9185 83.5106 79.9185 83.5106 79.4858C83.5106 79.053 83.5106 70.1382 83.5106 70.1382C83.5106 67.7541 85.0735 66.0231 87.5351 66.0231C89.9655 66.0231 91.5284 67.7541 91.5284 70.1382C91.5284 70.1382 91.5284 79.1238 91.5284 79.4858C91.5284 79.8398 91.6613 79.9106 92.0286 79.9106C92.2943 79.9106 93.1461 79.9106 93.5212 79.9106C94.076 79.9106 94.1073 79.7926 94.1073 79.3363C94.1073 79.053 94.1073 70.2326 94.1073 70.2326C94.0995 66.204 91.3096 63.576 87.5273 63.576Z" fill="white"/>
<path d="M70.21 63.5838C65.8181 63.5838 62.1843 66.7784 62.1843 71.9557C62.1843 76.6138 65.8181 80.2647 70.3663 80.2647C73.8126 80.2647 76.3523 78.5572 77.6574 75.5201C77.7355 75.3312 77.6183 74.9536 77.2119 74.9536C77.2119 74.9536 75.9147 74.9536 75.4849 74.9536C75.1723 74.9536 75.0316 75.2053 75.0316 75.2053C74.0001 76.897 72.3121 77.8806 70.3663 77.8806C68.7096 77.8806 66.7403 76.8577 66.1073 75.7719C65.9275 75.4571 66.0213 75.2132 66.2636 75.1109C68.1235 74.3162 77.4151 70.3034 77.4229 70.3034C77.7121 70.1854 77.9074 69.9808 77.8293 69.6503C76.8603 65.6532 73.6875 63.5838 70.21 63.5838ZM74.2189 69.0366C73.6406 69.2884 65.8728 72.6324 65.6775 72.7189C65.4821 72.7976 65.1539 72.7898 65.0445 72.4436C64.7866 71.6253 64.6928 68.1947 67.85 66.6289C70.5069 65.3149 73.2733 66.4322 74.4065 68.4701C74.5393 68.7061 74.4455 68.9422 74.2189 69.0366Z" fill="white"/>
<path d="M100.422 63.9773C99.812 63.9773 99.5541 63.9773 98.8664 63.9773C98.5304 63.9773 98.3506 64.0088 98.3506 64.3786C98.3506 64.3786 98.3506 77.5973 98.3506 79.3598V79.5487C98.3506 80.005 98.7805 79.9185 98.8899 79.9185C99.5072 79.9185 99.7651 79.9185 100.445 79.9185C100.781 79.9185 100.961 79.8792 100.961 79.5251V79.3677C100.961 77.7626 100.961 64.355 100.961 64.355C100.961 63.8829 100.531 63.9773 100.422 63.9773Z" fill="white"/>
<path d="M112.183 63.6151C108.314 63.4263 105.243 65.8655 105.243 70.4448C105.243 70.4448 105.243 79.0764 105.243 79.5328C105.243 79.9891 105.665 79.9104 105.782 79.9104C106.384 79.9104 106.642 79.9104 107.314 79.9104C107.65 79.9104 107.83 79.8632 107.83 79.5092V70.3819C107.83 67.4942 109.549 66.0071 112.3 66.0858C112.526 66.0858 112.808 65.9914 112.808 65.6137C112.808 65.1573 112.808 64.6459 112.808 64.1659C112.8 63.7489 112.534 63.6073 112.183 63.6151Z" fill="white"/>
<path d="M44.7888 63.6151C40.9206 63.4263 37.8494 65.8655 37.8494 70.4448C37.8494 70.4448 37.8494 79.0764 37.8494 79.5328C37.8494 79.9891 38.2792 79.9104 38.3808 79.9104C38.9903 79.9104 39.2404 79.9104 39.9203 79.9104C40.2563 79.9104 40.4282 79.8632 40.4282 79.5092V70.3819C40.4282 67.4942 42.1553 66.0071 44.8982 66.0858C45.1249 66.0858 45.4062 65.9914 45.4062 65.6137C45.4062 65.1573 45.4062 64.6459 45.4062 64.1659C45.4062 63.7489 45.1483 63.6073 44.7888 63.6151Z" fill="white"/>
<path d="M104.126 52.82L104.102 52.8122C104.094 52.8122 104.087 52.8122 104.087 52.8043L96.0062 47.7686L104.259 41.7808L104.266 41.7729C104.509 41.5998 104.673 41.3165 104.673 40.9939C104.673 40.514 104.313 40.1206 103.852 40.0655V40.0497L93.6775 39.0111L102.578 28.0191C102.75 27.8539 102.86 27.6178 102.86 27.3581C102.86 26.8467 102.446 26.4297 101.938 26.4297C101.914 26.4297 101.899 26.4297 101.875 26.4376L101.867 26.4218L87.7774 28.7194L91.9582 19.3482V19.3403C91.9973 19.2302 92.0208 19.1121 92.0208 18.9941C92.0208 18.4591 91.5909 18.0263 91.0595 18.0263C90.9501 18.0263 90.8564 18.0499 90.7548 18.0814L90.7469 18.0735L81.4084 22.2988L83.659 8.33255C83.6747 8.2696 83.6825 8.20666 83.6825 8.13584C83.6825 7.6008 83.2527 7.16804 82.7213 7.16804C82.5259 7.16804 82.354 7.22312 82.2055 7.32541L82.1977 7.33327C82.143 7.37262 82.0961 7.41196 82.0492 7.45917L71.1868 16.3661L70.1709 6.21597H70.1631C70.1709 6.17663 70.1787 6.13729 70.1787 6.09795C70.1787 5.58651 69.7724 5.18522 69.2722 5.18522C68.9127 5.18522 68.6001 5.39767 68.4517 5.70453L62.5047 14.0135L57.4799 0.723885H57.472C57.3861 0.306865 57.0266 0 56.589 0C56.1514 0 55.7919 0.306865 55.7059 0.723885L50.6967 14.0135L44.7497 5.7124L44.7419 5.72027C44.6013 5.40554 44.2809 5.18522 43.9214 5.18522C43.4212 5.18522 43.0071 5.59438 43.0071 6.09795C43.0071 6.15303 43.0149 6.20024 43.0149 6.24745H43.0071L41.9912 16.3661L31.0037 7.34114C30.8474 7.23099 30.6599 7.16804 30.4567 7.16804C29.9253 7.16804 29.4955 7.6008 29.4955 8.13584C29.4955 8.21453 29.5111 8.29321 29.5267 8.36402L31.7696 22.2909L22.4545 18.0735L22.4466 18.0814C22.345 18.0421 22.2356 18.0185 22.1106 18.0185C21.5792 18.0185 21.1494 18.4512 21.1494 18.9863C21.1494 19.1279 21.1807 19.2616 21.2354 19.3797L25.4006 28.7194L11.3263 26.4218L11.3185 26.4297C11.2873 26.4297 11.2638 26.4218 11.2326 26.4218C10.7168 26.4218 10.3104 26.8388 10.3104 27.3503C10.3104 27.6178 10.4277 27.8617 10.6074 28.027L19.5005 39.0033L9.34142 40.0419V40.0497C8.87254 40.1048 8.50525 40.4982 8.50525 40.9861C8.50525 41.3244 8.67717 41.6155 8.94287 41.7808L17.1795 47.7607L9.06009 52.7728C9.0132 52.7886 8.97413 52.7964 8.93505 52.82L8.9038 52.8358H8.91943C8.61465 52.9931 8.40366 53.3079 8.40366 53.6777H24.4863C24.5253 35.8874 38.8653 21.4805 56.5499 21.4805C74.2345 21.4805 88.5745 35.8874 88.637 53.6698H104.681C104.681 53.2921 104.446 52.9695 104.126 52.82Z" fill="white"/>
<path d="M86.5036 53.6777C86.4489 36.7057 73.1561 22.9676 56.7609 22.9676C40.3735 22.9676 27.0808 36.7057 27.0261 53.6777H86.5036Z" fill="white"/>
</svg>
