<?xml version="1.0" encoding="UTF-8"?><!DOCTYPE svg PUBLIC "-//W3C//DTD SVG 1.1//EN" "http://www.w3.org/Graphics/SVG/1.1/DTD/svg11.dtd"><svg xmlns="http://www.w3.org/2000/svg" xmlns:xlink="http://www.w3.org/1999/xlink"><symbol id="icon-arrow-down" viewBox="0 0 24 24"><path fill-rule="evenodd" clip-rule="evenodd" d="M5.363 8.363a.9.9 0 011.273 0L12 13.727l5.363-5.364a.9.9 0 111.273 1.273l-5.788 5.788a1.2 1.2 0 01-1.697 0L5.363 9.636a.9.9 0 010-1.273z"/></symbol><symbol id="icon-arrow-right" viewBox="0 0 20 20"><path d="M17.317 11.693l-5.625 5.624a.625.625 0 11-.884-.884l4.558-4.558H3.125a.625.625 0 110-1.25h12.241l-4.558-4.557a.625.625 0 11.884-.885l5.625 5.625a.625.625 0 010 .885z"/></symbol><symbol id="icon-chevron-down" viewBox="0 0 20 20"><path fill-rule="evenodd" clip-rule="evenodd" d="M4.47 6.97a.75.75 0 011.06 0L10 11.44l4.47-4.47a.75.75 0 111.06 1.06l-4.823 4.824a1 1 0 01-1.414 0L4.47 8.03a.75.75 0 010-1.06z"/></symbol><symbol id="icon-facebook" viewBox="0 0 24 24"><path d="M9.198 21.5h4v-8.01h3.604l.396-3.98h-4V7.5a1 1 0 011-1h3v-4h-3a5 5 0 00-5 5v2.01h-2l-.396 3.98h2.396v8.01z"/></symbol><symbol id="icon-instagram" viewBox="0 0 24 24"><path d="M12.925 3.221a70.93 70.93 0 011.97.02l.175.006c.202.007.4.016.64.027.958.045 1.612.196 2.185.419A4.379 4.379 0 0119.49 4.73c.457.45.811.994 1.037 1.594.223.573.374 1.228.419 2.185.01.24.02.44.027.641l.005.175c.016.656.023 1.312.021 1.969v1.85c.003.657-.004 1.314-.02 1.97l-.005.175c-.007.201-.016.4-.027.64-.045.958-.198 1.611-.42 2.185-.225.6-.58 1.145-1.037 1.594-.45.458-.994.812-1.595 1.038-.573.222-1.227.374-2.184.419-.24.01-.44.02-.641.027l-.175.005c-.656.016-1.313.023-1.97.02l-.671.002h-1.178a71.087 71.087 0 01-1.97-.021l-.175-.006a57.07 57.07 0 01-.64-.027c-.958-.044-1.611-.198-2.186-.419a4.402 4.402 0 01-1.593-1.038 4.413 4.413 0 01-1.039-1.594c-.222-.574-.373-1.227-.418-2.185-.01-.213-.02-.427-.027-.64l-.005-.175a71.173 71.173 0 01-.022-1.97v-1.85c-.003-.657.004-1.313.02-1.97l.006-.174c.007-.202.016-.401.027-.64.045-.96.196-1.612.418-2.186.226-.6.581-1.144 1.04-1.593a4.407 4.407 0 011.593-1.04c.575-.222 1.227-.373 2.186-.418l.64-.027.175-.004a71.101 71.101 0 011.969-.023l1.85.001zM12 7.721a4.5 4.5 0 100 8.999 4.5 4.5 0 000-9zm0 1.8a2.7 2.7 0 11.001 5.399 2.7 2.7 0 010-5.4zm4.725-3.15a1.125 1.125 0 000 2.248 1.125 1.125 0 100-2.25v.002z"/></symbol><symbol id="icon-twitter" viewBox="0 0 24 24"><path d="M21.75 5.847a7.987 7.987 0 01-2.293.643 4.007 4.007 0 001.752-2.218 8.055 8.055 0 01-2.535.979c-.736-.802-1.771-1.268-2.945-1.268-2.191 0-3.98 1.79-3.98 3.998 0 .317.037.625.102.914A11.367 11.367 0 013.61 4.72a3.955 3.955 0 00-.54 2.003c0 1.389.698 2.62 1.78 3.318a3.955 3.955 0 01-1.818-.466v.028c0 1.939 1.38 3.56 3.206 3.924a3.934 3.934 0 01-1.799.065 3.99 3.99 0 003.729 2.777 7.943 7.943 0 01-4.968 1.715c-.317 0-.634-.018-.951-.056a11.321 11.321 0 006.133 1.799c7.346 0 11.382-6.095 11.382-11.38 0-.177 0-.344-.01-.521a7.99 7.99 0 001.995-2.079z"/></symbol><symbol id="icon-youtube" viewBox="0 0 24 24"><path d="M10 15l5.19-3L10 9v6zm11.56-7.83c.13.47.22 1.1.28 1.9.07.8.1 1.49.1 2.09L22 12c0 2.19-.16 3.8-.44 4.83-.25.9-.83 1.48-1.73 1.73-.47.13-1.33.22-2.65.28-1.3.07-2.49.1-3.59.1L12 19c-4.19 0-6.8-.16-7.83-.44-.9-.25-1.48-.83-1.73-1.73-.13-.47-.22-1.1-.28-1.9-.07-.8-.1-1.49-.1-2.09L2 12c0-2.19.16-3.8.44-4.83.25-.9.83-1.48 1.73-1.73.47-.13 1.33-.22 2.65-.28 1.3-.07 2.49-.1 3.59-.1L12 5c4.19 0 6.8.16 7.83.44.9.25 1.48.83 1.73 1.73z"/></symbol></svg>