<svg width="20" height="20" viewBox="0 0 20 20" fill="none" xmlns="http://www.w3.org/2000/svg">
<path d="M17.3172 11.6925L11.6922 17.3175C11.5749 17.4348 11.4159 17.5007 11.25 17.5007C11.0841 17.5007 10.9251 17.4348 10.8078 17.3175C10.6905 17.2003 10.6247 17.0412 10.6247 16.8753C10.6247 16.7095 10.6905 16.5504 10.8078 16.4332L15.3664 11.8753H3.125C2.95924 11.8753 2.80027 11.8095 2.68306 11.6923C2.56585 11.5751 2.5 11.4161 2.5 11.2503C2.5 11.0846 2.56585 10.9256 2.68306 10.8084C2.80027 10.6912 2.95924 10.6253 3.125 10.6253H15.3664L10.8078 6.06753C10.6905 5.95026 10.6247 5.7912 10.6247 5.62535C10.6247 5.4595 10.6905 5.30044 10.8078 5.18316C10.9251 5.06588 11.0841 5 11.25 5C11.4159 5 11.5749 5.06588 11.6922 5.18316L17.3172 10.8082C17.3753 10.8662 17.4214 10.9351 17.4529 11.011C17.4843 11.0869 17.5005 11.1682 17.5005 11.2503C17.5005 11.3325 17.4843 11.4138 17.4529 11.4897C17.4214 11.5656 17.3753 11.6345 17.3172 11.6925Z" fill="white"/>
</svg>
