<svg width="23" height="24" viewBox="0 0 23 24" fill="none" xmlns="http://www.w3.org/2000/svg">
<path d="M16.5312 8.39719V7.875C16.5312 5.52375 13.1325 3.75 8.625 3.75C4.11754 3.75 0.71875 5.52375 0.71875 7.875V11.625C0.71875 13.5834 3.07715 15.1397 6.46875 15.6056V16.125C6.46875 18.4762 9.86754 20.25 14.375 20.25C18.8825 20.25 22.2812 18.4762 22.2812 16.125V12.375C22.2812 10.4344 19.9974 8.87625 16.5312 8.39719ZM20.8438 12.375C20.8438 13.6144 18.0775 15 14.375 15C14.0399 15 13.7075 14.9878 13.3795 14.9653C15.3175 14.2284 16.5312 13.0312 16.5312 11.625V9.91313C19.2149 10.3303 20.8438 11.4628 20.8438 12.375ZM6.46875 14.0859V11.8556C7.18371 11.9528 7.904 12.0011 8.625 12C9.346 12.0011 10.0663 11.9528 10.7812 11.8556V14.0859C10.0674 14.196 9.34664 14.2508 8.625 14.25C7.90336 14.2508 7.18264 14.196 6.46875 14.0859ZM15.0938 10.3059V11.625C15.0938 12.4116 13.9788 13.2562 12.2188 13.7691V11.5781C13.3786 11.2847 14.3606 10.8478 15.0938 10.3059ZM8.625 5.25C12.3275 5.25 15.0938 6.63562 15.0938 7.875C15.0938 9.11438 12.3275 10.5 8.625 10.5C4.92254 10.5 2.15625 9.11438 2.15625 7.875C2.15625 6.63562 4.92254 5.25 8.625 5.25ZM2.15625 11.625V10.3059C2.88937 10.8478 3.87137 11.2847 5.03125 11.5781V13.7691C3.27121 13.2562 2.15625 12.4116 2.15625 11.625ZM7.90625 16.125V15.7341C8.14254 15.7434 8.38152 15.75 8.625 15.75C8.97359 15.75 9.3141 15.7378 9.64832 15.7172C10.0196 15.8559 10.3978 15.9736 10.7812 16.0697V18.2691C9.02121 17.7562 7.90625 16.9116 7.90625 16.125ZM12.2188 18.5859V16.35C12.9335 16.4503 13.6538 16.5004 14.375 16.5C15.096 16.5011 15.8163 16.4528 16.5312 16.3556V18.5859C15.1014 18.8047 13.6486 18.8047 12.2188 18.5859ZM17.9688 18.2691V16.0781C19.1286 15.7847 20.1106 15.3478 20.8438 14.8059V16.125C20.8438 16.9116 19.7288 17.7562 17.9688 18.2691Z" fill="#404040"/>
</svg>
