<svg width="24" height="24" viewBox="0 0 24 24" fill="none" xmlns="http://www.w3.org/2000/svg">
<path d="M21.75 5.84725C21.0323 6.17344 20.2586 6.3878 19.457 6.49032C20.2772 5.99636 20.9111 5.2135 21.2094 4.27219C20.4357 4.73818 19.5782 5.06438 18.674 5.25078C17.9376 4.44927 16.903 3.98328 15.7285 3.98328C13.538 3.98328 11.7483 5.77269 11.7483 7.98149C11.7483 8.29837 11.7856 8.60592 11.8509 8.89484C8.53251 8.72708 5.57768 7.13339 3.6109 4.71954C3.26601 5.3067 3.07027 5.99636 3.07027 6.72331C3.07027 8.11197 3.76936 9.34219 4.85062 10.0412C4.18881 10.0412 3.57361 9.85478 3.03298 9.57519V9.60315C3.03298 11.5417 4.41252 13.1633 6.23948 13.5268C5.65292 13.6873 5.03713 13.7096 4.44049 13.592C4.69366 14.3865 5.18948 15.0817 5.85826 15.5799C6.52704 16.0781 7.33514 16.3542 8.16898 16.3694C6.75554 17.4882 5.00349 18.0929 3.20076 18.0842C2.88384 18.0842 2.56692 18.0656 2.25 18.0283C4.02103 19.1653 6.12763 19.827 8.38337 19.827C15.7285 19.827 19.7646 13.7318 19.7646 8.44749C19.7646 8.27041 19.7646 8.10265 19.7553 7.92557C20.5382 7.36638 21.2094 6.65807 21.75 5.84725Z" fill="white"/>
</svg>
