<svg width="24" height="24" viewBox="0 0 24 24" fill="none" xmlns="http://www.w3.org/2000/svg">
<path d="M12.9254 3.22108C13.5821 3.21856 14.2389 3.22516 14.8954 3.24088L15.07 3.24718C15.2716 3.25438 15.4705 3.26338 15.7108 3.27418C16.6684 3.31917 17.3217 3.47037 17.895 3.69266C18.489 3.92125 18.9894 4.23084 19.4898 4.73123C19.9473 5.18086 20.3014 5.72474 20.5274 6.32507C20.7497 6.89835 20.9009 7.55263 20.9459 8.5102C20.9567 8.74959 20.9657 8.94938 20.9729 9.15098L20.9783 9.32557C20.9943 9.98182 21.0012 10.6383 20.999 11.2947L20.9999 11.9661V13.145C21.0021 13.8018 20.9952 14.4585 20.9792 15.1151L20.9738 15.2897C20.9666 15.4913 20.9576 15.6902 20.9468 15.9304C20.9018 16.888 20.7488 17.5414 20.5274 18.1147C20.3021 18.7156 19.9479 19.26 19.4898 19.7094C19.0397 20.1669 18.4956 20.521 17.895 20.7471C17.3217 20.9694 16.6684 21.1206 15.7108 21.1656C15.4705 21.1764 15.2716 21.1854 15.07 21.1926L14.8954 21.198C14.2389 21.214 13.5821 21.2209 12.9254 21.2187L12.254 21.2196H11.0759C10.4192 21.2218 9.76246 21.2149 9.10591 21.1989L8.93132 21.1935C8.71767 21.1857 8.50408 21.1767 8.29054 21.1665C7.33297 21.1215 6.67959 20.9685 6.10541 20.7471C5.50485 20.5215 4.96087 20.1673 4.51157 19.7094C4.05352 19.2597 3.6991 18.7155 3.473 18.1147C3.25071 17.5414 3.09952 16.888 3.05452 15.9304C3.04449 15.7169 3.03549 15.5033 3.02752 15.2897L3.02302 15.1151C3.00643 14.4585 2.99893 13.8018 3.00052 13.145V11.2947C2.99801 10.6383 3.00461 9.98182 3.02032 9.32557L3.02662 9.15098C3.03382 8.94938 3.04282 8.74959 3.05362 8.5102C3.09862 7.55173 3.24981 6.89925 3.4721 6.32507C3.69833 5.72445 4.05345 5.18071 4.51247 4.73213C4.96146 4.27382 5.5051 3.91907 6.10541 3.69266C6.67959 3.47037 7.33207 3.31917 8.29054 3.27418L8.93132 3.24718L9.10591 3.24268C9.76215 3.22609 10.4186 3.21859 11.075 3.22018L12.9254 3.22108ZM12.0002 7.72092C11.404 7.71249 10.812 7.82264 10.2588 8.04497C9.70547 8.26731 9.20189 8.59739 8.77728 9.01603C8.35268 9.43467 8.01551 9.93353 7.78538 10.4836C7.55524 11.0337 7.43673 11.624 7.43673 12.2203C7.43673 12.8166 7.55524 13.4069 7.78538 13.957C8.01551 14.5071 8.35268 15.006 8.77728 15.4246C9.20189 15.8433 9.70547 16.1733 10.2588 16.3957C10.812 16.618 11.404 16.7282 12.0002 16.7197C13.1936 16.7197 14.3382 16.2456 15.1821 15.4017C16.026 14.5579 16.5001 13.4133 16.5001 12.2199C16.5001 11.0264 16.026 9.88188 15.1821 9.038C14.3382 8.19411 13.1936 7.72092 12.0002 7.72092ZM12.0002 9.52086C12.3589 9.51426 12.7152 9.57918 13.0485 9.71184C13.3818 9.84451 13.6853 10.0423 13.9412 10.2935C14.1972 10.5448 14.4006 10.8446 14.5394 11.1753C14.6783 11.5061 14.7498 11.8612 14.7499 12.2199C14.7499 12.5786 14.6785 12.9337 14.5398 13.2645C14.401 13.5953 14.1978 13.8951 13.9419 14.1465C13.686 14.3978 13.3826 14.5957 13.0493 14.7284C12.7161 14.8612 12.3598 14.9263 12.0011 14.9198C11.2851 14.9198 10.5983 14.6353 10.092 14.129C9.58566 13.6227 9.30121 12.9359 9.30121 12.2199C9.30121 11.5038 9.58566 10.8171 10.092 10.3107C10.5983 9.80442 11.2851 9.51996 12.0011 9.51996L12.0002 9.52086ZM16.7251 6.37097C16.4347 6.38259 16.1601 6.5061 15.9588 6.71563C15.7575 6.92516 15.6451 7.20446 15.6451 7.49503C15.6451 7.7856 15.7575 8.0649 15.9588 8.27443C16.1601 8.48396 16.4347 8.60747 16.7251 8.61909C17.0234 8.61909 17.3096 8.50057 17.5205 8.2896C17.7315 8.07863 17.85 7.79249 17.85 7.49413C17.85 7.19577 17.7315 6.90964 17.5205 6.69866C17.3096 6.48769 17.0234 6.36917 16.7251 6.36917V6.37097Z" fill="white"/>
</svg>
