<svg width="32" height="32" viewBox="0 0 32 32" fill="none" xmlns="http://www.w3.org/2000/svg">
<path d="M21.302 19.2954H20.2487L19.8754 18.9354C21.4754 17.0688 22.302 14.5221 21.8487 11.8154C21.222 8.10876 18.1287 5.14876 14.3954 4.69543C8.75536 4.0021 4.00869 8.74876 4.70202 14.3888C5.15536 18.1221 8.11536 21.2154 11.822 21.8421C14.5287 22.2954 17.0754 21.4688 18.942 19.8688L19.302 20.2421V21.2954L24.9687 26.9621C25.5154 27.5088 26.4087 27.5088 26.9554 26.9621C27.502 26.4154 27.502 25.5221 26.9554 24.9754L21.302 19.2954ZM13.302 19.2954C9.98202 19.2954 7.30202 16.6154 7.30202 13.2954C7.30202 9.97543 9.98202 7.29543 13.302 7.29543C16.622 7.29543 19.302 9.97543 19.302 13.2954C19.302 16.6154 16.622 19.2954 13.302 19.2954Z" fill="#507C13"/>
</svg>
