<svg width="20" height="16" viewBox="0 0 20 16" fill="none" xmlns="http://www.w3.org/2000/svg">
<path d="M15.4839 7C15.4839 7.19778 15.4271 7.39112 15.3208 7.55557C15.2144 7.72002 15.0633 7.84819 14.8865 7.92388C14.7096 7.99957 14.515 8.01937 14.3273 7.98079C14.1396 7.9422 13.9672 7.84696 13.8318 7.70711C13.6965 7.56725 13.6043 7.38907 13.567 7.19509C13.5296 7.00111 13.5488 6.80004 13.622 6.61732C13.6953 6.43459 13.8193 6.27841 13.9785 6.16853C14.1376 6.05865 14.3247 6 14.5161 6C14.7728 6 15.0189 6.10536 15.2004 6.29289C15.3819 6.48043 15.4839 6.73478 15.4839 7ZM12.2581 2.66667H9.03225C8.86115 2.66667 8.69705 2.7369 8.57606 2.86193C8.45506 2.98695 8.38709 3.15652 8.38709 3.33333C8.38709 3.51014 8.45506 3.67971 8.57606 3.80474C8.69705 3.92976 8.86115 4 9.03225 4H12.2581C12.4292 4 12.5933 3.92976 12.7143 3.80474C12.8352 3.67971 12.9032 3.51014 12.9032 3.33333C12.9032 3.15652 12.8352 2.98695 12.7143 2.86193C12.5933 2.7369 12.4292 2.66667 12.2581 2.66667ZM20 6.66667V9.33333C20 9.86377 19.7961 10.3725 19.4331 10.7475C19.0701 11.1226 18.5778 11.3333 18.0645 11.3333H17.8742L16.5669 15.115C16.4774 15.374 16.3126 15.5981 16.095 15.7566C15.8774 15.915 15.6178 16 15.3516 16H14.3258C14.0596 16 13.8 15.915 13.5824 15.7566C13.3648 15.5981 13.2 15.374 13.1105 15.115L12.9556 14.6667H8.33467L8.17983 15.115C8.09033 15.374 7.9255 15.5981 7.70793 15.7566C7.49035 15.915 7.23068 16 6.96451 16H5.93871C5.67253 16 5.41287 15.915 5.19529 15.7566C4.97772 15.5981 4.81288 15.374 4.72338 15.115L3.70968 12.185C2.74531 11.0572 2.14146 9.64914 1.98064 8.15333C1.77244 8.26634 1.59808 8.43599 1.47641 8.64397C1.35474 8.85194 1.29039 9.09031 1.29032 9.33333C1.29032 9.51015 1.22235 9.67972 1.10136 9.80474C0.980367 9.92976 0.816268 10 0.645161 10C0.474054 10 0.309954 9.92976 0.188963 9.80474C0.0679721 9.67972 0 9.51015 0 9.33333C0.000985788 8.7388 0.194212 8.16167 0.548979 7.69361C0.903746 7.22556 1.39971 6.89343 1.95806 6.75C2.10219 4.91277 2.90969 3.19874 4.22022 1.94827C5.53076 0.697796 7.24846 0.00234048 9.03225 0H17.4193C17.5905 0 17.7546 0.070238 17.8755 0.195262C17.9965 0.320287 18.0645 0.489856 18.0645 0.666667C18.0645 0.843478 17.9965 1.01305 17.8755 1.13807C17.7546 1.2631 17.5905 1.33333 17.4193 1.33333H15.6943C16.765 2.10958 17.6071 3.17669 18.1274 4.41667C18.1621 4.5 18.196 4.58333 18.2282 4.66667C18.7127 4.70916 19.1639 4.93849 19.4922 5.30905C19.8204 5.67962 20.0017 6.16428 20 6.66667ZM18.7097 6.66667C18.7097 6.48986 18.6417 6.32029 18.5207 6.19526C18.3997 6.07024 18.2356 6 18.0645 6H17.7693C17.6319 6.00015 17.4981 5.95497 17.3873 5.87103C17.2764 5.78709 17.1944 5.66878 17.1532 5.53333C16.7836 4.31445 16.0467 3.24952 15.05 2.49396C14.0533 1.73839 12.849 1.33174 11.6129 1.33333H9.03225C7.90541 1.33327 6.8029 1.67203 5.85916 2.30828C4.91542 2.94454 4.17124 3.85081 3.71736 4.91658C3.26348 5.98235 3.11951 7.16156 3.30301 8.31042C3.48652 9.45928 3.98956 10.5281 4.7508 11.3867C4.80902 11.4521 4.85398 11.5289 4.88306 11.6125L5.93871 14.6667H6.96451L7.27258 13.7758C7.3173 13.6464 7.39966 13.5344 7.50837 13.4552C7.61707 13.376 7.74682 13.3334 7.87983 13.3333H13.4105C13.5435 13.3334 13.6732 13.376 13.7819 13.4552C13.8907 13.5344 13.973 13.6464 14.0177 13.7758L14.3258 14.6667H15.3516L16.8121 10.4425C16.8568 10.3131 16.9392 10.2011 17.0479 10.1218C17.1566 10.0426 17.2863 10.0001 17.4193 10H18.0645C18.2356 10 18.3997 9.92976 18.5207 9.80474C18.6417 9.67972 18.7097 9.51015 18.7097 9.33333V6.66667Z" fill="#404040"/>
</svg>
