<svg width="25" height="24" viewBox="0 0 25 24" fill="none" xmlns="http://www.w3.org/2000/svg">
<path d="M13.828 2.00123C14.5577 1.99843 15.2874 2.00576 16.017 2.02323L16.211 2.03023C16.435 2.03823 16.656 2.04823 16.923 2.06023C17.987 2.11023 18.713 2.27823 19.35 2.52523C20.01 2.77923 20.566 3.12323 21.122 3.67923C21.6303 4.17884 22.0238 4.78318 22.275 5.45023C22.522 6.08723 22.69 6.81423 22.74 7.87823C22.752 8.14423 22.762 8.36623 22.77 8.59023L22.776 8.78423C22.7937 9.51342 22.8014 10.2428 22.799 10.9722L22.8 11.7182V13.0282C22.8024 13.758 22.7948 14.4877 22.777 15.2172L22.771 15.4112C22.763 15.6352 22.753 15.8562 22.741 16.1232C22.691 17.1872 22.521 17.9132 22.275 18.5502C22.0246 19.218 21.6311 19.8228 21.122 20.3222C20.6219 20.8306 20.0173 21.224 19.35 21.4752C18.713 21.7222 17.987 21.8902 16.923 21.9402C16.656 21.9522 16.435 21.9622 16.211 21.9702L16.017 21.9762C15.2874 21.994 14.5577 22.0017 13.828 21.9992L13.082 22.0002H11.773C11.0432 22.0027 10.3135 21.995 9.58395 21.9772L9.38995 21.9712C9.15256 21.9626 8.91523 21.9526 8.67795 21.9412C7.61395 21.8912 6.88795 21.7212 6.24995 21.4752C5.58264 21.2246 4.97819 20.8311 4.47895 20.3222C3.97 19.8225 3.57618 19.2178 3.32495 18.5502C3.07795 17.9132 2.90995 17.1872 2.85995 16.1232C2.84882 15.8859 2.83882 15.6486 2.82995 15.4112L2.82495 15.2172C2.80652 14.4877 2.79818 13.758 2.79995 13.0282V10.9722C2.79716 10.2428 2.8045 9.51343 2.82195 8.78423L2.82895 8.59023C2.83695 8.36623 2.84695 8.14423 2.85895 7.87823C2.90895 6.81323 3.07695 6.08823 3.32395 5.45023C3.57533 4.78285 3.96992 4.17868 4.47995 3.68023C4.97885 3.17098 5.58292 2.7768 6.24995 2.52523C6.88795 2.27823 7.61295 2.11023 8.67795 2.06023L9.38995 2.03023L9.58395 2.02523C10.3131 2.0068 11.0425 1.99847 11.772 2.00023L13.828 2.00123ZM12.8 7.00123C12.1375 6.99186 11.4797 7.11425 10.8649 7.3613C10.2502 7.60834 9.6906 7.97511 9.2188 8.44029C8.747 8.90546 8.37235 9.45977 8.11664 10.071C7.86093 10.6822 7.72925 11.3382 7.72925 12.0007C7.72925 12.6633 7.86093 13.3192 8.11664 13.9305C8.37235 14.5417 8.747 15.096 9.2188 15.5612C9.6906 16.0264 10.2502 16.3931 10.8649 16.6402C11.4797 16.8872 12.1375 17.0096 12.8 17.0002C14.126 17.0002 15.3978 16.4734 16.3355 15.5358C17.2732 14.5981 17.8 13.3263 17.8 12.0002C17.8 10.6741 17.2732 9.40238 16.3355 8.4647C15.3978 7.52701 14.126 7.00123 12.8 7.00123ZM12.8 9.00123C13.1985 8.99389 13.5944 9.06603 13.9648 9.21344C14.3351 9.36085 14.6723 9.58057 14.9567 9.85978C15.2412 10.139 15.4671 10.4721 15.6214 10.8396C15.7757 11.2071 15.8552 11.6016 15.8552 12.0002C15.8553 12.3988 15.7759 12.7934 15.6218 13.1609C15.4676 13.5285 15.2418 13.8617 14.9574 14.141C14.6731 14.4203 14.3359 14.6401 13.9657 14.7876C13.5954 14.9352 13.1995 15.0074 12.801 15.0002C12.0053 15.0002 11.2422 14.6842 10.6796 14.1216C10.117 13.5589 9.80095 12.7959 9.80095 12.0002C9.80095 11.2046 10.117 10.4415 10.6796 9.87891C11.2422 9.3163 12.0053 9.00023 12.801 9.00023L12.8 9.00123ZM18.05 5.50123C17.7273 5.51414 17.4222 5.65138 17.1986 5.8842C16.9749 6.11702 16.8499 6.42736 16.8499 6.75023C16.8499 7.0731 16.9749 7.38344 17.1986 7.61626C17.4222 7.84908 17.7273 7.98632 18.05 7.99923C18.3815 7.99923 18.6994 7.86753 18.9338 7.63311C19.1683 7.39869 19.3 7.08075 19.3 6.74923C19.3 6.41771 19.1683 6.09977 18.9338 5.86535C18.6994 5.63093 18.3815 5.49923 18.05 5.49923V5.50123Z" fill="white"/>
</svg>
