<svg width="25" height="24" viewBox="0 0 25 24" fill="none" xmlns="http://www.w3.org/2000/svg">
<path d="M10.8 15L15.99 12L10.8 9V15ZM22.36 7.17C22.49 7.64 22.58 8.27 22.64 9.07C22.71 9.87 22.74 10.56 22.74 11.16L22.8 12C22.8 14.19 22.64 15.8 22.36 16.83C22.11 17.73 21.53 18.31 20.63 18.56C20.16 18.69 19.3 18.78 17.98 18.84C16.68 18.91 15.49 18.94 14.39 18.94L12.8 19C8.60999 19 5.99999 18.84 4.96999 18.56C4.06999 18.31 3.48999 17.73 3.23999 16.83C3.10999 16.36 3.01999 15.73 2.95999 14.93C2.88999 14.13 2.85999 13.44 2.85999 12.84L2.79999 12C2.79999 9.81 2.95999 8.2 3.23999 7.17C3.48999 6.27 4.06999 5.69 4.96999 5.44C5.43999 5.31 6.29999 5.22 7.61999 5.16C8.91999 5.09 10.11 5.06 11.21 5.06L12.8 5C16.99 5 19.6 5.16 20.63 5.44C21.53 5.69 22.11 6.27 22.36 7.17Z" fill="white"/>
</svg>
