<svg width="17" height="18" viewBox="0 0 17 18" fill="none" xmlns="http://www.w3.org/2000/svg">
<path d="M16.5422 7.17838L9.45891 0.384602C9.45544 0.381531 9.45219 0.378223 9.44917 0.374701C9.18837 0.133601 8.84853 0 8.49602 0C8.14351 0 7.80366 0.133601 7.54286 0.374701L7.53312 0.384602L0.45776 7.17838C0.313435 7.31329 0.19823 7.47719 0.119435 7.6597C0.0406399 7.84221 -2.97879e-05 8.03936 1.63694e-08 8.23867V16.5599C1.63694e-08 16.9418 0.149255 17.3081 0.414932 17.5782C0.680609 17.8483 1.04094 18 1.41667 18H5.66667C6.04239 18 6.40272 17.8483 6.6684 17.5782C6.93408 17.3081 7.08333 16.9418 7.08333 16.5599V12.2395H9.91667V16.5599C9.91667 16.9418 10.0659 17.3081 10.3316 17.5782C10.5973 17.8483 10.9576 18 11.3333 18H15.5833C15.9591 18 16.3194 17.8483 16.5851 17.5782C16.8507 17.3081 17 16.9418 17 16.5599V8.23867C17 8.03936 16.9594 7.84221 16.8806 7.6597C16.8018 7.47719 16.6866 7.31329 16.5422 7.17838ZM15.5833 16.5599H11.3333V12.2395C11.3333 11.8576 11.1841 11.4913 10.9184 11.2212C10.6527 10.9511 10.2924 10.7994 9.91667 10.7994H7.08333C6.70761 10.7994 6.34728 10.9511 6.0816 11.2212C5.81592 11.4913 5.66667 11.8576 5.66667 12.2395V16.5599H1.41667V8.23867L1.42641 8.22967L8.5 1.43859L15.5745 8.22787L15.5842 8.23687L15.5833 16.5599Z" fill="#404040"/>
</svg>
